<?xml version="1.0" standalone="no"?>
<!DOCTYPE svg PUBLIC "-//W3C//DTD SVG 1.1//EN" "http://www.w3.org/Graphics/SVG/1.1/DTD/svg11.dtd" >
<svg xmlns="http://www.w3.org/2000/svg">
<metadata></metadata>
<defs>
<font id="Swis721CnBTRoman" horiz-adv-x="1020" >
<font-face units-per-em="2048" ascent="1556" descent="-492" />
<missing-glyph horiz-adv-x="510" />
<glyph horiz-adv-x="0" />
<glyph horiz-adv-x="2048" />
<glyph unicode="&#xd;" horiz-adv-x="510" />
<glyph unicode=" "  horiz-adv-x="510" />
<glyph unicode="&#x09;" horiz-adv-x="510" />
<glyph unicode="&#xa0;" horiz-adv-x="510" />
<glyph unicode="!" horiz-adv-x="530" d="M172 1102v438h186v-438l-43 -723h-100zM180 0v211h170v-211h-170z" />
<glyph unicode="&#x22;" horiz-adv-x="614" d="M90 881v555h139v-555h-139zM385 881v555h139v-555h-139z" />
<glyph unicode="#" horiz-adv-x="1575" d="M88 449l53 147h310l92 262h-330l51 146h332l162 454h166l-162 -454h256l164 454h164l-160 -454h301l-51 -146h-303l-93 -262h322l-51 -147h-322l-162 -453h-165l161 453h-258l-162 -453h-165l159 453h-309zM616 594h261l92 264h-260z" />
<glyph unicode="$" d="M76 432q0 39 2 59l168 1l-2 -48q0 -155 50 -229t155 -74h8v578q-192 66 -276.5 165t-84.5 262.5t97 266.5t264 111v139h88v-137q350 -34 350 -377v-23h-164v9q0 224 -186 249v-518q220 -79 306.5 -176.5t86.5 -277.5t-103 -292t-290 -120v-199h-88v197 q-192 11 -286.5 118t-94.5 316zM264 1146q0 -98 45.5 -155.5t147.5 -93.5v489q-89 -9 -141 -75.5t-52 -164.5zM545 139q103 7 162 80t59 185t-54 177.5t-167 102.5v-545z" />
<glyph unicode="%" horiz-adv-x="1430" d="M94 1153q0 369 277 369q144 0 214 -90.5t70 -277t-72.5 -285.5t-212.5 -99t-208 93t-68 290zM236 1142.5q0 -137.5 32.5 -193.5t105 -56t106.5 63.5t34 200.5q0 242 -141 242q-76 0 -106.5 -59.5t-30.5 -197zM305 -29l694 1579h117l-692 -1579h-119zM774 383 q0 369 277 369q145 0 214.5 -90.5t69.5 -277.5t-72 -285.5t-212 -98.5t-208.5 93.5t-68.5 289.5zM913 372.5q0 -136.5 34 -193t106.5 -56.5t106.5 63.5t34 200.5q0 242 -141 242q-76 0 -108 -60t-32 -196.5z" />
<glyph unicode="&#x26;" horiz-adv-x="1253" d="M115 424q0 145 73 254t234 205q-148 195 -148 341t85 233t219.5 87t219.5 -83.5t85 -213.5q0 -227 -256 -385l295 -430q35 108 49 285h164q-18 -270 -117 -418l207 -299h-199l-106 150q-148 -177 -381 -177q-188 0 -306 125.5t-118 325.5zM289 432q0 -128 80.5 -216.5 t199.5 -88.5q158 0 267 149l-338 492q-209 -137 -209 -336zM436 1253q0 -118 117 -280q80 53 124 123t44 145t-38.5 118.5t-105 43.5t-104 -43.5t-37.5 -106.5z" />
<glyph unicode="'" horiz-adv-x="317" d="M90 881v555h139v-555h-139z" />
<glyph unicode="(" horiz-adv-x="653" d="M186 553q0 528 318 987h117q-134 -207 -195 -439t-61 -491.5t22 -414t62 -261.5q75 -200 172 -383h-117q-167 273 -242.5 511t-75.5 491z" />
<glyph unicode=")" horiz-adv-x="653" d="M55 -449q193 370 233 649q23 155 23 412q0 533 -256 928h117q317 -458 317 -987q0 -253 -75 -491t-242 -511h-117z" />
<glyph unicode="*" horiz-adv-x="1024" d="M121 1206l45 137l283 -102v299h122v-299l281 98l51 -131l-297 -82l201 -245l-117 -84l-180 260l-178 -260l-117 84l201 245z" />
<glyph unicode="+" horiz-adv-x="1706" d="M254 541v139h528v541h142v-541h528v-139h-528v-541h-142v541h-528z" />
<glyph unicode="," horiz-adv-x="512" d="M160 0v211h182v-211q0 -116 -49 -195t-133 -100v96q86 17 86 189v10h-86z" />
<glyph unicode="-" horiz-adv-x="676" d="M90 485v181h494v-181h-494z" />
<glyph unicode="." horiz-adv-x="512" d="M164 0v211h182v-211h-182z" />
<glyph unicode="/" horiz-adv-x="569" d="M-78 -190l549 1767h111l-549 -1767h-111z" />
<glyph unicode="0" d="M94 759q0 436 96 612.5t320 176.5q218 0 332 -202q44 -80 64 -214t20 -372q0 -429 -95 -610t-319.5 -181t-321 177t-96.5 613zM272 769q0 -377 53.5 -513.5t186.5 -136.5t184.5 123.5t51.5 508t-53 516.5t-186 132t-185 -126.5t-52 -503.5z" />
<glyph unicode="1" d="M154 1133v131h20q164 0 247 70t91 216h135v-1550h-166v1133h-327z" />
<glyph unicode="2" d="M98 59q0 299 269 539q229 202 276 258q86 99 86 250q0 293 -225 293t-225 -318l2 -51h-166l-2 55q0 224 103.5 345.5t292 121.5t293.5 -110.5t105 -308.5q0 -194 -86 -320q-45 -70 -201 -196q-206 -164 -275.5 -265t-71.5 -194h647v-158h-819q-3 16 -3 59z" />
<glyph unicode="3" d="M82 444v15h170v-25q0 -315 235 -315q256 0 256 313q0 154 -74 227.5t-231 73.5l-53 -1v140h35q146 0 213 65.5t67 197t-58 199t-163 67.5q-207 0 -207 -285v-24h-163v22q0 203 100 318.5t276.5 115.5t280.5 -103.5t104 -262.5t-58.5 -252.5t-158.5 -112.5 q267 -47 267 -377q0 -224 -113.5 -347.5t-315.5 -123.5t-305.5 121.5t-103.5 353.5z" />
<glyph unicode="4" d="M63 393v150l572 1005h149v-1007h144v-148h-144v-393h-163v393h-558zM205 541h416l18 788z" />
<glyph unicode="5" d="M88 405l168 1v-13q0 -130 60 -201t175 -71t178.5 96t63.5 279q0 366 -252 366q-82 0 -138.5 -37.5t-78.5 -105.5l-145 12l84 791h649v-156h-516l-55 -459q22 50 88 80.5t153 30.5q180 0 284.5 -133.5t104.5 -380t-111 -391t-308.5 -144.5t-299.5 112t-104 324z" />
<glyph unicode="6" d="M96 738.5q0 419.5 104.5 615.5t340.5 196q163 0 259.5 -99.5t96.5 -268.5h-170v10q0 97 -51.5 153t-140.5 56q-137 0 -197.5 -124t-79.5 -480q37 93 111.5 142.5t177.5 49.5q184 0 288.5 -129t104.5 -366.5t-111 -381t-299 -143.5q-227 0 -330.5 175t-103.5 594.5z M279 496.5q0 -180.5 65.5 -280t182 -99.5t177 97.5t60.5 273.5q0 354 -246 354q-124 0 -181.5 -82.5t-57.5 -263z" />
<glyph unicode="7" d="M92 1354v168h836v-148q-449 -597 -496 -1374h-192q93 775 540 1354h-688z" />
<glyph unicode="8" d="M94 407q0 189 71 296t197 128q-217 62 -217 324q0 186 98.5 290.5t270 104.5t270.5 -103t99 -280q0 -269 -221 -329q135 -31 199.5 -125t64.5 -262q0 -230 -109 -356t-303 -126t-307 124.5t-113 313.5zM270 459q0 -340 244 -340q110 0 173 83.5t63 239.5q0 316 -246 316 q-112 0 -173 -78t-61 -221zM311 1156q0 -118 53.5 -184.5t148.5 -66.5t148.5 65.5t53.5 184t-55 184.5t-151.5 66t-147 -65.5t-50.5 -183.5z" />
<glyph unicode="9" d="M80 1026q0 238 111 381t298 143q228 0 331.5 -174.5t103.5 -594t-104.5 -616t-340.5 -196.5q-163 0 -260.5 100.5t-97.5 268.5h172v-10q0 -97 51.5 -153t140.5 -56q137 0 197.5 123.5t79.5 478.5q-37 -93 -111.5 -143t-177.5 -50q-184 0 -288.5 130t-104.5 368zM256 1024 q0 -346 246 -346q123 0 181 82.5t58 262.5t-65.5 279t-182 99t-177 -97.5t-60.5 -279.5z" />
<glyph unicode=":" horiz-adv-x="512" d="M164 0v211h182v-211h-182zM164 926v211h182v-211h-182z" />
<glyph unicode=";" horiz-adv-x="512" d="M164 0v211h182v-211q0 -116 -49 -195t-133 -100v96q41 8 64.5 57.5t23.5 131.5v10h-88zM164 926v211h182v-211h-182z" />
<glyph unicode="&#x3c;" horiz-adv-x="1706" d="M264 547v129l1178 483v-153l-969 -396l969 -393v-154z" />
<glyph unicode="=" horiz-adv-x="1706" d="M254 342v139h1198v-139h-1198zM254 739v140h1198v-140h-1198z" />
<glyph unicode="&#x3e;" horiz-adv-x="1706" d="M264 63v154l971 393l-971 396v153l1178 -483v-129z" />
<glyph unicode="?" horiz-adv-x="1018" d="M154 1092v26q0 223 97.5 341t279 118t285.5 -107t104 -292t-180 -395l-5 -5q-149 -175 -149 -329l1 -62l-157 1q-2 34 -2 108.5t30 153.5q31 82 156 230t125 304q0 112 -54.5 177.5t-154 65.5t-155.5 -78t-56 -227v-30h-165zM422 0v211h170v-211h-170z" />
<glyph unicode="@" horiz-adv-x="2048" d="M106 522q0 334 203 582q146 178 351.5 270t455.5 92q163 0 310 -45t265 -136t185.5 -222t67.5 -294.5t-63.5 -303.5t-184.5 -236q-141 -112 -316 -112q-200 0 -200 157v19q-108 -174 -301 -174q-153 0 -233.5 85t-80.5 247q0 235 138 394t339 159q170 0 242 -150l57 115 h132l-146 -576q-8 -32 -8 -59q0 -94 100 -94q101 0 195 89q184 174 184 433t-190.5 420t-499.5 161q-264 0 -456 -114t-297 -299.5t-105 -386t61.5 -331.5t192.5 -230q208 -160 539 -160t606 190l55 -82q-297 -223 -664 -223q-383 0 -628 187q-306 234 -306 628zM725 446 q0 -105 48.5 -162t141.5 -57t170.5 69t104.5 179l59 236q-17 88 -68.5 136t-129.5 48q-138 0 -232 -130t-94 -319z" />
<glyph unicode="A" horiz-adv-x="1126" d="M31 0l420 1540h219l426 -1540h-174l-117 444h-488l-112 -444h-174zM356 600h410l-205 807z" />
<glyph unicode="B" horiz-adv-x="1108" d="M137 0v1540h402q216 0 313.5 -91.5t97.5 -293.5q0 -275 -213 -336q134 -27 198 -119.5t64 -257.5q0 -211 -116 -326.5t-328 -115.5h-418zM303 152h219q157 0 226 66t69 225.5t-73.5 229.5t-251.5 70h-189v-591zM303 885h180q162 0 227.5 60t65.5 202.5t-66.5 199 t-236.5 56.5h-170v-518z" />
<glyph unicode="C" horiz-adv-x="1157" d="M106 775q0 419 113.5 610.5t366.5 191.5q211 0 325.5 -122.5t114.5 -348.5v-19h-166q0 158 -74 248t-202 90q-157 0 -226 -152.5t-69 -502.5t71 -496.5t234 -146.5q131 0 201.5 107.5t70.5 306.5v24h170q-3 -293 -121.5 -447.5t-349 -154.5t-345 196.5t-114.5 615.5z" />
<glyph unicode="D" horiz-adv-x="1192" d="M137 0v1540h436q262 0 386 -175t124 -544q0 -260 -42.5 -428.5t-133.5 -267.5q-62 -68 -140 -96.5t-232 -28.5h-398zM309 147h223q108 0 168 22q126 47 171 268q24 118 24 331q0 373 -78 498t-291 125h-217v-1244z" />
<glyph unicode="E" horiz-adv-x="1004" d="M137 0v1540h764v-160h-594v-495h555v-156h-555v-567h600v-162h-770z" />
<glyph unicode="F" horiz-adv-x="885" d="M137 0v1540h711v-156h-535v-495h498v-160h-498v-729h-176z" />
<glyph unicode="G" horiz-adv-x="1214" d="M106 779q0 420 123.5 609t395.5 189q209 0 326.5 -125.5t119.5 -351.5h-170q-5 158 -79 244t-206 86q-179 0 -255 -157t-76 -504t81 -495.5t240 -148.5q318 0 318 453q0 50 -3 69h-348v156h514v-803h-133l-10 213q-42 -121 -133.5 -185.5t-220.5 -64.5q-249 0 -366.5 198 t-117.5 618z" />
<glyph unicode="H" horiz-adv-x="1200" d="M137 0v1540h176v-635h574v635h176v-1540h-176v750h-574v-750h-176z" />
<glyph unicode="I" horiz-adv-x="451" d="M137 0v1540h176v-1540h-176z" />
<glyph unicode="J" horiz-adv-x="862" d="M35 352v125h166v-149q0 -217 174 -217q104 0 144 64t40 286v1079h166v-1196q0 -193 -88 -286t-261 -93q-341 0 -341 387z" />
<glyph unicode="K" horiz-adv-x="1110" d="M137 0v1540h170v-741l557 741h199l-479 -622l514 -918h-209l-420 768l-162 -211v-557h-170z" />
<glyph unicode="L" horiz-adv-x="975" d="M137 0v1540h172v-1374h615v-166h-787z" />
<glyph unicode="M" horiz-adv-x="1511" d="M135 0v1540h289l324 -1313l339 1313h285v-1540h-168v1452l-375 -1452h-167l-359 1452v-1452h-168z" />
<glyph unicode="N" horiz-adv-x="1188" d="M137 0v1540h230l534 -1321l-16 1321h166v-1540h-220l-542 1360l14 -1360h-166z" />
<glyph unicode="O" horiz-adv-x="1200" d="M106 771.5q0 428.5 116.5 617t378.5 188.5t377.5 -186.5t115.5 -620.5t-115 -620.5t-377 -186.5t-379 190t-117 618.5zM285 769.5q0 -370.5 70.5 -512.5t245.5 -142t244.5 138.5t69.5 516t-69.5 515.5t-244.5 138t-245.5 -141.5t-70.5 -512z" />
<glyph unicode="P" horiz-adv-x="1085" d="M137 0v1540h395q252 0 368 -103.5t116 -329.5t-121 -343t-356 -117h-230v-647h-172zM309 803h226q156 0 229.5 74.5t73.5 228t-74 219.5t-240 66h-215v-588z" />
<glyph unicode="Q" horiz-adv-x="1200" d="M106 771.5q0 428.5 116.5 617t378.5 188.5t377.5 -186.5t115.5 -615t-101 -591.5l174 -141l-92 -117l-168 135q-90 -98 -307 -98q-260 0 -377 190t-117 618.5zM287 770q0 -372 70 -513.5t243 -141.5q117 0 180 55l-162 137l99 115l145 -123q53 186 53 451q0 395 -69 534 t-244 139t-245 -140.5t-70 -512.5z" />
<glyph unicode="R" horiz-adv-x="1196" d="M137 0v1540h432q239 0 355 -97.5t116 -297.5q0 -155 -70 -247.5t-216 -129.5q128 -11 192 -83t78 -223q5 -56 11 -155q16 -252 81 -307h-213q-32 53 -39 201.5t-12 206.5q-14 159 -82.5 217.5t-245.5 58.5h-219v-684h-168zM305 834h209q181 0 265.5 69.5t84.5 213.5 t-75 208t-242 64h-242v-555z" />
<glyph unicode="S" horiz-adv-x="1098" d="M102 438l2 51h164v-55q0 -317 287 -317q128 0 201 77t73 198.5t-44.5 180t-200.5 117.5q-37 14 -164 60.5t-178 91.5q-115 102 -115 305t111 316.5t304 113.5t299.5 -105t106.5 -290l-2 -39h-158v16q0 130 -63.5 200.5t-181.5 70.5t-187 -67.5t-69 -179.5t47 -172 t205 -118q296 -109 348 -158q108 -100 108 -313t-121 -335t-336.5 -122t-325.5 120t-110 353z" />
<glyph unicode="T" horiz-adv-x="995" d="M29 1382v158h938v-158h-369v-1382h-176v1382h-393z" />
<glyph unicode="U" horiz-adv-x="1180" d="M139 535v1005h172v-1036q0 -216 61.5 -300.5t210.5 -84.5t220 93t71 292v1036h168v-1005q0 -195 -22 -275.5t-80 -149.5q-122 -145 -360 -145q-121 0 -217 41q-171 75 -207 252q-17 82 -17 277z" />
<glyph unicode="V" horiz-adv-x="1075" d="M6 1540h187l346 -1327l356 1327h172l-424 -1540h-207z" />
<glyph unicode="W" horiz-adv-x="1620" d="M25 1540h178l241 -1302l273 1302h196l267 -1292l245 1292h168l-325 -1540h-185l-270 1257l-274 -1257h-189z" />
<glyph unicode="X" horiz-adv-x="1012" d="M-25 0l428 797l-407 743h209l305 -584l309 584h197l-412 -739l432 -801h-207l-325 645l-330 -645h-199z" />
<glyph unicode="Y" horiz-adv-x="1028" d="M-31 1540h205l340 -758l356 758h187l-459 -944v-596h-174v596z" />
<glyph unicode="Z" horiz-adv-x="905" d="M47 0v160l621 1220h-586v160h768v-158l-617 -1216h625v-166h-811z" />
<glyph unicode="[" horiz-adv-x="653" d="M233 -434v1974h363v-123h-197v-1726h197v-125h-363z" />
<glyph unicode="\" horiz-adv-x="569" d="M0 1577h111l548 -1767h-110z" />
<glyph unicode="]" horiz-adv-x="653" d="M57 -309h197v1726h-197v123h363v-1974h-363v125z" />
<glyph unicode="^" horiz-adv-x="2048" d="M420 901l510 557h186l510 -557h-180l-422 420l-424 -420h-180z" />
<glyph unicode="_" horiz-adv-x="1024" d="M0 -340h1024v-143h-1024v143z" />
<glyph unicode="`" horiz-adv-x="1024" d="M285 1546h178l170 -270h-101z" />
<glyph unicode="a" horiz-adv-x="913" d="M90 289.5q0 150.5 64 228.5q66 79 282 151q176 59 176 138v106q0 71 -40.5 103.5t-129.5 32.5q-170 0 -170 -183v-20h-151q3 176 84 257t250.5 81t245 -74.5t75.5 -235.5v-673q0 -45 16 -64.5t38 -19.5q32 0 40 4v-123q-60 -10 -94 -10q-68 0 -107 43t-42 122 q-77 -182 -273 -182q-125 0 -194.5 84t-69.5 234.5zM252 298q0 -91 38 -138t107 -47q100 0 159.5 76t59.5 204v228q-38 -42 -168 -89q-129 -47 -162.5 -95t-33.5 -139z" />
<glyph unicode="b" horiz-adv-x="981" d="M125 0v1540h160v-508q21 65 90 105.5t160 40.5q168 0 261 -148t93 -438.5t-92.5 -452.5t-270.5 -162q-92 0 -161 46t-91 122v-145h-149zM274 584q0 -250 53 -356.5t169 -106.5t166.5 111.5t50.5 350t-53.5 345t-169 106.5t-166 -100t-50.5 -350z" />
<glyph unicode="c" horiz-adv-x="942" d="M94 575.5q0 606.5 387 606.5q161 0 254.5 -98.5t93.5 -268.5v-24h-157q-10 247 -185 247q-118 0 -168.5 -104.5t-50.5 -357t51 -358t170 -105.5q90 0 139 75t52 217l158 1q0 -209 -96 -323t-280 -114q-368 0 -368 606.5z" />
<glyph unicode="d" horiz-adv-x="975" d="M90 591.5q0 289.5 94 438t262 148.5q91 0 160.5 -41t87.5 -105v508h162v-1540h-151v145q-22 -76 -90 -122t-160 -46q-178 0 -271.5 162.5t-93.5 452zM266 583q0 -237 51.5 -349.5t167 -112.5t168 106t52.5 357.5t-49.5 350.5t-165.5 99t-170 -107t-54 -344z" />
<glyph unicode="e" horiz-adv-x="901" d="M90 572q0 313 88.5 462.5t273 149.5t272 -127t87.5 -387q0 -66 -2 -100l-553 -1v-51q0 -216 50 -315t159 -99q85 0 134.5 74.5t49.5 202.5v8h158q-2 -204 -93.5 -312t-269 -108t-266 145t-88.5 458zM256 700h391v31q0 320 -186 320q-205 0 -205 -351z" />
<glyph unicode="f" horiz-adv-x="532" d="M4 1020v131h162v156q0 125 65.5 183t206.5 58q30 0 68 -8l-1 -143q-34 6 -79 6q-94 0 -94 -103v-149h174v-131h-174v-1020h-166v1020h-162z" />
<glyph unicode="g" horiz-adv-x="973" d="M92 610q0 568 361 568q91 0 155 -42.5t90 -119.5v135h156v-1098q0 -212 -102 -327t-289 -115q-148 0 -242 77.5t-94 198.5v7l160 -1q10 -141 188 -141q118 0 170.5 77t52.5 249q0 5 -1 25t-1 36q-70 -157 -256 -157q-348 0 -348 628zM262 577q0 -245 50.5 -349.5 t167 -104.5t167.5 106t51 351.5t-53.5 352.5t-168 107t-164.5 -109t-50 -354z" />
<glyph unicode="h" horiz-adv-x="963" d="M123 0v1540h162v-514q89 150 278 150q133 0 207 -68.5t74 -192.5v-915h-162v838q0 102 -38.5 148t-134.5 46t-160 -68t-64 -184v-780h-162z" />
<glyph unicode="i" horiz-adv-x="408" d="M121 0v1151h166v-1151h-166zM121 1331v209h166v-209h-166z" />
<glyph unicode="j" horiz-adv-x="426" d="M20 -250h9q70 0 94 28t24 124v1249h160v-1262q0 -146 -62.5 -211t-203.5 -65h-21v137zM147 1333v207h160v-209z" />
<glyph unicode="k" horiz-adv-x="868" d="M123 0v1540h156v-911l393 522h188l-344 -436l371 -715h-197l-284 567l-127 -157v-410h-156z" />
<glyph unicode="l" horiz-adv-x="401" d="M121 0v1540h160v-1540h-160z" />
<glyph unicode="m" horiz-adv-x="1528" d="M123 0v1151h149v-139q95 166 298.5 166t252.5 -168q102 168 299 168q140 0 214.5 -73t74.5 -210v-895h-166v795q0 140 -36 189.5t-132.5 49.5t-161.5 -65t-65 -168v-801h-166v801q0 127 -38.5 180t-135.5 53t-163 -63t-66 -162v-809h-158z" />
<glyph unicode="n" horiz-adv-x="963" d="M123 0v1151h151v-143q84 168 289 168q152 0 216.5 -77t64.5 -265v-834h-162v846q0 186 -162 186q-108 0 -171.5 -68t-63.5 -184v-780h-162z" />
<glyph unicode="o" horiz-adv-x="989" d="M90 572.5q0 312.5 99.5 462t306 149.5t305 -148t98.5 -461t-98 -459.5t-307.5 -146.5t-306.5 145.5t-97 458zM262 575q0 -258 53 -363.5t178 -105.5t178.5 107.5t53.5 362.5t-53.5 360.5t-178 105.5t-178 -104.5t-53.5 -362.5z" />
<glyph unicode="p" horiz-adv-x="975" d="M123 -389v1540h156v-145q18 75 86.5 123.5t156.5 48.5q365 0 365 -600q0 -311 -85 -457t-265 -146q-82 0 -146.5 38.5t-101.5 109.5v-512h-166zM279 584.5q0 -240.5 56 -354t168 -113.5t161 109.5t49 352t-50 349t-165.5 106.5t-167 -104.5t-51.5 -345z" />
<glyph unicode="q" horiz-adv-x="975" d="M88 578q0 600 365 600q87 0 156 -48.5t87 -123.5v145h156v-1540h-166v512q-37 -71 -101.5 -109.5t-146.5 -38.5q-180 0 -265 146t-85 457zM262 578.5q0 -242.5 48.5 -352t156.5 -109.5q229 0 229 463q0 245 -52 349.5t-167 104.5t-165 -106.5t-50 -349z" />
<glyph unicode="r" horiz-adv-x="596" d="M123 0v1151h149v-188q35 101 105.5 158t161.5 57q43 0 69 -4v-172q-26 14 -63 14q-124 0 -193 -82t-69 -229v-705h-160z" />
<glyph unicode="s" horiz-adv-x="909" d="M92 322v24h160l-4 -39q0 -94 53.5 -143t151 -49t151 50t53.5 136q0 138 -211 210t-273 144t-62 216t88.5 228.5t246.5 84.5q338 0 338 -320v-16h-153q-5 104 -47 151.5t-131 47.5q-189 0 -189 -177q0 -81 46.5 -119.5t147 -70.5t138.5 -47q119 -46 170 -116.5t51 -186.5 q0 -173 -99.5 -267t-275.5 -94q-350 0 -350 353z" />
<glyph unicode="t" horiz-adv-x="504" d="M-10 1018v133h160v307h157v-307h187v-133h-187v-780q0 -72 26 -94.5t124 -22.5q24 0 36 2l1 -141q-75 -5 -119 -5q-225 0 -225 183v858h-160z" />
<glyph unicode="u" horiz-adv-x="963" d="M119 266v885h168v-889q0 -71 35.5 -110t99.5 -39q116 0 181 72t65 202v764h163v-1151h-149v150q-34 -87 -108.5 -134t-198.5 -47q-256 0 -256 297z" />
<glyph unicode="v" horiz-adv-x="872" d="M33 1151h176l225 -903l236 903h168l-320 -1151h-174z" />
<glyph unicode="w" horiz-adv-x="1364" d="M43 1151h166l213 -920l178 920h164l199 -922l198 922h160l-279 -1151h-159l-201 893l-176 -893h-168z" />
<glyph unicode="x" horiz-adv-x="825" d="M-18 0l327 596l-305 555h184l222 -414l225 414h180l-307 -543l334 -608h-189l-247 467l-242 -467h-182z" />
<glyph unicode="y" horiz-adv-x="909" d="M35 1151h174l246 -928l254 928h165l-354 -1202q-56 -196 -129 -266t-207 -70q-44 0 -106 18v146q48 -21 109.5 -21t103 48t82.5 186z" />
<glyph unicode="z" horiz-adv-x="793" d="M47 0v147l494 859h-473v145h665v-129l-504 -868h514v-154h-696z" />
<glyph unicode="{" horiz-adv-x="1024" d="M168 457v149l45 -2q130 0 184 60.5t54 207.5v246q0 148 22.5 210.5t72.5 93.5t113.5 43t169.5 12h37v-150h-41q-120 0 -161 -44.5t-41 -184.5v-242q0 -160 -44.5 -228t-156.5 -98q113 -28 157 -96t44 -229v-242q0 -141 41.5 -185t162.5 -44h39v-148h-43q-193 0 -260 41.5 t-89.5 104.5t-22.5 211v245q0 149 -54.5 210t-185.5 61z" />
<glyph unicode="|" horiz-adv-x="1024" d="M438 -483v2048h150v-2048h-150z" />
<glyph unicode="}" horiz-adv-x="1024" d="M160 -266h39q120 0 162 45t42 186v240q0 160 44.5 228t156.5 97q-112 30 -156.5 98t-44.5 228v242q0 140 -42 184.5t-162 44.5h-39v150h37q195 0 278 -52q55 -34 77.5 -96.5t22.5 -210.5v-246q0 -147 54 -207.5t184 -60.5l45 2v-149l-43 2q-132 0 -186 -60.5t-54 -210.5 v-245q0 -148 -22.5 -211t-71 -93t-109.5 -41.5t-169 -11.5h-43v148z" />
<glyph unicode="~" horiz-adv-x="1706" d="M178 451v155q212 144 387 144q134 0 338 -79q159 -57 240 -57q166 0 387 156v-156q-204 -141 -389 -141q-93 0 -256 58q-212 77 -322 77q-160 0 -385 -157z" />
<glyph unicode="&#xa0;" />
<glyph unicode="&#xa1;" horiz-adv-x="530" d="M172 0v438l43 723h100l43 -723v-438h-186zM180 1331v209h170v-209h-170z" />
<glyph unicode="&#xa2;" d="M150 584q0 293 75.5 439t237.5 167v287h131v-283q285 -44 285 -365v-12h-160q-16 242 -184 242q-118 0 -165.5 -107t-47.5 -359t51.5 -355t163.5 -103q85 0 137.5 72.5t52.5 191.5v29h159q-2 -191 -78 -301.5t-214 -124.5v-326h-131v324q-313 24 -313 584z" />
<glyph unicode="&#xa3;" d="M59 96q113 72 176.5 180.5t63.5 219t-45 202.5h-195v93h150q-105 143 -105 332.5t117 308t313.5 118.5t304 -113.5t107.5 -324.5v-33h-164v19q0 145 -66 224t-184.5 79t-182.5 -73t-64 -206q0 -182 106 -331h326v-93h-287q35 -112 35 -155q0 -213 -238 -418 q122 70 234 70q59 0 159 -26t146 -26q89 0 168 62l55 -139q-112 -91 -248 -91q-57 0 -174.5 39t-187.5 39q-130 0 -232 -90z" />
<glyph unicode="&#xa4;" d="M33 602l24 98h117q0 110 2 170h-135l25 99h114q18 317 115 448t309 131q175 0 264 -99.5t101 -315.5h-166q-20 266 -201 266q-125 0 -180.5 -94t-65.5 -336h449l-25 -99h-428l-2 -84l2 -86h387l-26 -98h-358q6 -273 61.5 -378t183.5 -105q102 0 154 84t57 268h168 q-15 -264 -109.5 -383t-291.5 -119t-292.5 147t-109.5 486h-143z" />
<glyph unicode="&#xa5;" d="M-23 1522h201l336 -725l352 725h185l-263 -512h209v-101h-262l-86 -170h348v-98h-399v-641h-174v641h-397v98h346l-84 170h-262v101h209z" />
<glyph unicode="&#xa6;" horiz-adv-x="1024" d="M438 -350v758h150v-758h-150zM438 674v758h150v-758h-150z" />
<glyph unicode="&#xa7;" horiz-adv-x="1024" d="M125 739q0 216 166 297q-96 83 -96 230.5t82 229t236 81.5t232 -80t78 -233v-29h-157v10q0 100 -35.5 144.5t-114.5 44.5q-160 0 -160 -164q0 -107 179 -202q249 -134 306.5 -219t57.5 -197.5t-39 -182t-129 -121.5q98 -74 98 -228.5t-84 -238.5t-241 -84 q-334 0 -334 305q0 29 2 43h160v-24q0 -96 38.5 -138t127.5 -42q166 0 166 165q0 118 -188 225q-243 138 -297 220t-54 188zM270 784q0 -114 90 -180q17 -12 112 -73.5t171 -112.5q109 66 109 194t-266 292q-69 42 -107 67q-109 -65 -109 -187z" />
<glyph unicode="&#xa8;" horiz-adv-x="1024" d="M270 1311v170h156v-170h-156zM598 1311v170h156v-170h-156z" />
<glyph unicode="&#xa9;" horiz-adv-x="1706" d="M117 727q0 303 216 520t523 217t520 -215q104 -103 159.5 -238.5t55.5 -284.5q0 -306 -213 -515q-227 -221 -526 -221q-301 0 -518 219q-217 215 -217 518zM213 728q0 -260 190 -452q190 -188 451 -188q258 0 448.5 185.5t190.5 453t-184 453.5q-190 188 -455 188 q-264 0 -448 -184q-93 -93 -143 -211.5t-50 -244.5zM463 726q0 207 109 329.5t286 122.5q142 0 236.5 -75t105.5 -196h-147q-13 77 -66 118.5t-148.5 41.5t-155.5 -90.5t-60 -248.5t62 -245.5t173 -87.5q82 0 136.5 47t68.5 129h145q-9 -130 -107.5 -211t-264.5 -81 t-269.5 120t-103.5 327z" />
<glyph unicode="&#xaa;" horiz-adv-x="686" d="M68 937.5q0 105.5 48 160.5t208 104l1 1q134 42 134 97v74q0 49 -30.5 71.5t-96.5 22.5t-96.5 -30.5t-30.5 -96.5v-14h-114q2 125 63 181.5t187.5 56.5t183.5 -52.5t57 -164.5v-471q0 -60 51 -60l20 2v-86q-40 -6 -71 -6q-107 0 -111 116q-57 -128 -205 -128 q-94 0 -146 58.5t-52 164zM188 944.5q0 -63.5 29 -96.5t93 -33t108.5 52.5t44.5 142.5v159q-24 -23 -124.5 -58.5t-125.5 -69t-25 -97z" />
<glyph unicode="&#xab;" horiz-adv-x="987" d="M129 506v145l305 314v-187l-196 -200l196 -205v-187zM551 506v145l305 314v-187l-197 -200l197 -205v-187z" />
<glyph unicode="&#xac;" horiz-adv-x="1706" d="M254 721v139h1198v-502h-137v363h-1061z" />
<glyph unicode="&#xad;" horiz-adv-x="676" d="M90 485v181h494v-181h-494z" />
<glyph unicode="&#xae;" horiz-adv-x="1706" d="M117 727q0 146 57.5 282.5t165.5 245.5q205 209 512 209q311 0 526 -219q103 -104 158 -238t55 -283q0 -306 -215 -515q-109 -106 -244.5 -162.5t-281.5 -56.5q-301 0 -518 221q-215 217 -215 516zM213 728q0 -259 188 -449q90 -92 206.5 -141.5t243.5 -49.5 q260 0 451 185t191 454t-185 455t-453.5 186t-446.5 -182q-94 -95 -144.5 -214t-50.5 -244zM557 324v835h315q349 0 349 -229q0 -89 -50 -148t-141 -77l187 -381h-177l-170 356h-155v-356h-158zM715 780h133q113 0 162 31.5t49 104.5t-51 107t-164 34h-129v-277z" />
<glyph unicode="&#xaf;" horiz-adv-x="1024" d="M287 1331v133h450v-133h-450z" />
<glyph unicode="&#xb0;" horiz-adv-x="674" d="M49 1167q0 120 84.5 204.5t203.5 84.5t203.5 -84.5t84.5 -204t-84 -203t-205 -83.5t-204 83t-83 203zM143 1169q0 -81 57 -138.5t138 -57.5t136.5 57.5t55.5 138.5t-55.5 137t-136.5 56t-138 -56t-57 -137z" />
<glyph unicode="&#xb1;" horiz-adv-x="1706" d="M254 29v141h1198v-141h-1198zM254 713v139h528v340h142v-340h528v-139h-528v-340h-142v340h-528z" />
<glyph unicode="&#xb2;" horiz-adv-x="674" d="M66 606v35q0 181 176 324q129 99 171.5 143t55 81t12.5 104t-38.5 110t-110.5 43q-148 0 -148 -191v-30h-108l-2 32q0 135 68.5 208t193 73t193.5 -66.5t69 -185.5q0 -116 -55 -192q-29 -40 -92.5 -87t-79.5 -59q-106 -80 -147.5 -135.5t-43.5 -111.5l426 -1v-94h-540z " />
<glyph unicode="&#xb3;" horiz-adv-x="674" d="M53 872v9h113v-15q0 -188 156 -188q170 0 170 188q0 181 -203 181q-21 0 -35 -2v85h22q98 0 142.5 39t44.5 117.5t-39 119t-109 40.5q-135 0 -135 -170v-14h-108v12q0 122 66 192t182.5 70t185.5 -62.5t69 -157.5t-38.5 -151t-104.5 -69q174 -27 174 -226 q0 -135 -74 -208.5t-207.5 -73.5t-202.5 73t-69 211z" />
<glyph unicode="&#xb4;" horiz-adv-x="1024" d="M391 1274l170 272h178l-247 -272h-101z" />
<glyph unicode="&#xb5;" horiz-adv-x="1151" d="M-113 -428l318 1499h180l-129 -600q-14 -64 -14 -148t52 -138t148 -54q132 0 208.5 92.5t123.5 311.5l115 536h178l-156 -732q-1 -6 -11.5 -56.5t-10.5 -81.5q0 -62 72 -62q18 0 32 2l-31 -143q-48 -10 -109.5 -10t-95.5 29t-52 100q-89 -131 -258.5 -131t-268.5 116 l-110 -530h-181z" />
<glyph unicode="&#xb6;" horiz-adv-x="1024" d="M66 1133q0 154 107.5 250t285.5 96h499v-86h-120v-1393h-111v1393h-176v-1393h-113v782q-170 8 -271 102.5t-101 248.5z" />
<glyph unicode="&#xb7;" horiz-adv-x="512" d="M125 762q0 55 37 92t92.5 37t93 -37t37.5 -92t-38.5 -93t-92.5 -38t-91.5 38t-37.5 93z" />
<glyph unicode="&#xb8;" horiz-adv-x="1024" d="M330 -342q133 -25 178 -25q110 0 110 84q0 42 -29.5 65t-62.5 23t-57 -3v198h76v-102h6q97 0 152 -46.5t55 -127.5q0 -195 -246 -195q-80 0 -182 27v102z" />
<glyph unicode="&#xb9;" horiz-adv-x="674" d="M102 1286v78h13q109 0 163.5 42t59.5 130h90v-930h-111v680h-215z" />
<glyph unicode="&#xba;" horiz-adv-x="741" d="M68 1136.5q0 218.5 74.5 323.5t229 105t228.5 -104t74 -323t-73 -321t-230.5 -102t-230 101.5t-72.5 320zM197 1138q0 -180 40 -254.5t133.5 -74.5t134 75.5t40.5 253t-40.5 252t-134.5 74.5t-133.5 -73t-39.5 -253z" />
<glyph unicode="&#xbb;" horiz-adv-x="987" d="M129 186v187l199 205l-199 200v187l305 -314v-145zM551 186v187l199 205l-199 200v187l305 -314v-145z" />
<glyph unicode="&#xbc;" horiz-adv-x="1628" d="M96 1303v73h13q203 0 213 160h86v-868h-105v635h-207zM301 -31l899 1581h125l-899 -1581h-125zM1026 221v82l358 563h95v-563h90v-82h-90v-221h-103v221h-350zM1114 303h262l13 440z" />
<glyph unicode="&#xbd;" horiz-adv-x="1628" d="M96 1303v73h13q203 0 213 160h86v-868h-105v635h-207zM301 -31l899 1581h125l-899 -1581h-125zM1047 33q0 166 170 303q21 17 85 67t91 79q51 53 51 137q0 163 -144 163q-139 0 -139 -176v-28h-104v30q0 126 64.5 193t183.5 67t185 -61.5t66 -171.5t-53 -180 q-26 -36 -87 -80q-174 -125 -215.5 -179.5t-42.5 -107.5h407v-88h-516q-2 12 -2 33z" />
<glyph unicode="&#xbe;" horiz-adv-x="1626" d="M51 918v6h107v-13q0 -178 149 -178q162 0 162 176q0 86 -47 127t-146 41h-34v80h22q93 0 134.5 36t41.5 110q0 149 -139 149q-129 0 -129 -160v-14h-104v14q0 114 63 178t175 64t177.5 -57.5t65.5 -147t-37.5 -142t-99.5 -63.5q168 -28 168 -211q0 -124 -72 -193 t-199 -69t-192.5 68t-65.5 199zM301 -31l899 1581h125l-899 -1581h-125zM1026 221v82l358 563h95v-563h90v-82h-90v-221h-103v221h-350zM1114 303h262l13 440z" />
<glyph unicode="&#xbf;" horiz-adv-x="1018" d="M154 360q0 101 33.5 184t148.5 218l2 2q149 175 149 330q0 35 -4 59h160q2 -34 2 -108t-30 -153.5t-135 -204.5q-146 -170 -146 -329q0 -113 54 -179t153.5 -66t156 78t56.5 227v31h166v-27q0 -223 -98 -340t-279.5 -117t-285 106.5t-103.5 288.5zM481 1331v209h170v-209 h-170z" />
<glyph unicode="&#xc0;" horiz-adv-x="1126" d="M31 0l420 1540h219l426 -1540h-174l-117 444h-488l-112 -444h-174zM336 1958h178l170 -270h-101zM356 600h410l-205 807z" />
<glyph unicode="&#xc1;" horiz-adv-x="1126" d="M31 0l420 1540h219l426 -1540h-174l-117 444h-488l-112 -444h-174zM356 600h410l-205 807zM442 1686l170 272h178l-247 -272h-101z" />
<glyph unicode="&#xc2;" horiz-adv-x="1126" d="M31 0l420 1540h219l426 -1540h-174l-117 444h-488l-112 -444h-174zM307 1688l172 270h168l172 -270h-98l-158 166l-158 -166h-98zM356 600h410l-205 807z" />
<glyph unicode="&#xc3;" horiz-adv-x="1126" d="M31 0l420 1540h219l426 -1540h-174l-117 444h-488l-112 -444h-174zM315 1708q44 195 176 195q21 0 41 -6l107 -33l28 -4q56 0 68 70h74q-28 -201 -166 -201q-25 0 -59 10l-87 31q-10 4 -34 4q-51 0 -72 -66h-76zM356 600h410l-205 807z" />
<glyph unicode="&#xc4;" horiz-adv-x="1126" d="M31 0l420 1540h219l426 -1540h-174l-117 444h-488l-112 -444h-174zM321 1723v170h156v-170h-156zM356 600h410l-205 807zM649 1723v170h156v-170h-156z" />
<glyph unicode="&#xc5;" horiz-adv-x="1126" d="M31 0l418 1530h223l424 -1530h-174l-117 444h-488l-112 -444h-174zM356 600h410l-205 807zM369 1780q0 80 56 136t136.5 56t136.5 -56t56 -136t-56.5 -136.5t-136.5 -56.5t-136 56.5t-56 136.5zM463 1780q0 -39 30 -69t69 -30t68 29.5t29 69.5t-29 69t-68.5 29t-69 -29.5 t-29.5 -68.5z" />
<glyph unicode="&#xc6;" horiz-adv-x="1612" d="M-27 0l596 1540h940v-160h-594v-495h555v-156h-555v-567h601v-162h-771v444h-421l-166 -444h-185zM385 600h360v780h-65z" />
<glyph unicode="&#xc7;" horiz-adv-x="1157" d="M106 775q0 419 113.5 610.5t366.5 191.5q211 0 325.5 -122.5t114.5 -348.5v-19h-166q0 158 -74 248t-202 90q-157 0 -226 -152.5t-69 -502.5t71 -496.5t234 -146.5q131 0 201.5 107.5t70.5 306.5v24h170q-3 -293 -121.5 -447.5t-349 -154.5t-345 196.5t-114.5 615.5z M379 -342q133 -25 178 -25q110 0 110 84q0 42 -29.5 65t-62.5 23t-57 -3v198h76v-102h6q97 0 152 -46.5t55 -127.5q0 -195 -246 -195q-80 0 -182 27v102z" />
<glyph unicode="&#xc8;" horiz-adv-x="1004" d="M137 0v1540h764v-160h-594v-495h555v-156h-555v-567h600v-162h-770zM308 1958h178l170 -270h-101z" />
<glyph unicode="&#xc9;" horiz-adv-x="1004" d="M137 0v1540h764v-160h-594v-495h555v-156h-555v-567h600v-162h-770zM414 1686l170 272h178l-247 -272h-101z" />
<glyph unicode="&#xca;" horiz-adv-x="1004" d="M137 0v1540h764v-160h-594v-495h555v-156h-555v-567h600v-162h-770zM279 1688l172 270h168l172 -270h-98l-158 166l-158 -166h-98z" />
<glyph unicode="&#xcb;" horiz-adv-x="1004" d="M137 0v1540h764v-160h-594v-495h555v-156h-555v-567h600v-162h-770zM293 1723v170h156v-170h-156zM621 1723v170h156v-170h-156z" />
<glyph unicode="&#xcc;" horiz-adv-x="451" d="M-2 1958h178l170 -270h-101zM137 0v1540h176v-1540h-176z" />
<glyph unicode="&#xcd;" horiz-adv-x="451" d="M104 1686l170 272h178l-247 -272h-101zM137 0v1540h176v-1540h-176z" />
<glyph unicode="&#xce;" horiz-adv-x="451" d="M-31 1688l172 270h168l172 -270h-98l-158 166l-158 -166h-98zM137 0v1540h176v-1540h-176z" />
<glyph unicode="&#xcf;" horiz-adv-x="451" d="M-17 1723v170h156v-170h-156zM137 0v1540h176v-1540h-176zM311 1723v170h156v-170h-156z" />
<glyph unicode="&#xd0;" horiz-adv-x="1210" d="M0 754v147h156v639h436q261 0 385.5 -175t124.5 -544q0 -678 -316 -793q-79 -28 -233 -28h-397v754h-156zM328 147h223q107 0 167 22q128 47 172 268q23 118 23 331q0 373 -77.5 498t-290.5 125h-217v-490h305v-147h-305v-607z" />
<glyph unicode="&#xd1;" horiz-adv-x="1188" d="M137 0v1540h230l534 -1321l-16 1321h166v-1540h-220l-542 1360l14 -1360h-166zM368 1708q44 195 176 195q21 0 41 -6l107 -33l28 -4q56 0 68 70h74q-28 -201 -166 -201q-25 0 -59 10l-87 31q-10 4 -34 4q-51 0 -72 -66h-76z" />
<glyph unicode="&#xd2;" horiz-adv-x="1200" d="M106 771.5q0 428.5 116.5 617t378.5 188.5t377.5 -186.5t115.5 -620.5t-115 -620.5t-377 -186.5t-379 190t-117 618.5zM285 769.5q0 -370.5 70.5 -512.5t245.5 -142t244.5 138.5t69.5 516t-69.5 515.5t-244.5 138t-245.5 -141.5t-70.5 -512zM373 1958h178l170 -270h-101z " />
<glyph unicode="&#xd3;" horiz-adv-x="1200" d="M106 771.5q0 428.5 116.5 617t378.5 188.5t377.5 -186.5t115.5 -620.5t-115 -620.5t-377 -186.5t-379 190t-117 618.5zM285 769.5q0 -370.5 70.5 -512.5t245.5 -142t244.5 138.5t69.5 516t-69.5 515.5t-244.5 138t-245.5 -141.5t-70.5 -512zM479 1686l170 272h178 l-247 -272h-101z" />
<glyph unicode="&#xd4;" horiz-adv-x="1200" d="M106 771.5q0 428.5 116.5 617t378.5 188.5t377.5 -186.5t115.5 -620.5t-115 -620.5t-377 -186.5t-379 190t-117 618.5zM285 769.5q0 -370.5 70.5 -512.5t245.5 -142t244.5 138.5t69.5 516t-69.5 515.5t-244.5 138t-245.5 -141.5t-70.5 -512zM344 1688l172 270h168 l172 -270h-98l-158 166l-158 -166h-98z" />
<glyph unicode="&#xd5;" horiz-adv-x="1200" d="M106 771.5q0 428.5 116.5 617t378.5 188.5t377.5 -186.5t115.5 -620.5t-115 -620.5t-377 -186.5t-379 190t-117 618.5zM285 769.5q0 -370.5 70.5 -512.5t245.5 -142t244.5 138.5t69.5 516t-69.5 515.5t-244.5 138t-245.5 -141.5t-70.5 -512zM352 1708q44 195 176 195 q21 0 41 -6l107 -33l28 -4q56 0 68 70h74q-28 -201 -166 -201q-25 0 -59 10l-87 31q-10 4 -34 4q-51 0 -72 -66h-76z" />
<glyph unicode="&#xd6;" horiz-adv-x="1200" d="M106 771.5q0 428.5 116.5 617t378.5 188.5t377.5 -186.5t115.5 -620.5t-115 -620.5t-377 -186.5t-379 190t-117 618.5zM285 769.5q0 -370.5 70.5 -512.5t245.5 -142t244.5 138.5t69.5 516t-69.5 515.5t-244.5 138t-245.5 -141.5t-70.5 -512zM358 1723v170h156v-170h-156z M686 1723v170h156v-170h-156z" />
<glyph unicode="&#xd7;" horiz-adv-x="1706" d="M293 141l469 469l-469 469l98 99l469 -469l469 469l98 -99l-469 -469l469 -469l-98 -96l-469 467l-469 -467z" />
<glyph unicode="&#xd8;" horiz-adv-x="1200" d="M78 14l117 193q-86 182 -86 588t115 594t376 188q225 0 344 -135l80 139l90 -57l-106 -183q86 -186 86 -595.5t-115 -596t-379 -186.5q-221 0 -342 143l-90 -151zM287 770q0 -227 26 -369l535 885q-39 72 -98 104.5t-150 32.5q-173 0 -243 -140.5t-70 -512.5zM352 264 q69 -149 247.5 -149t247 141t68.5 551q0 184 -26 344z" />
<glyph unicode="&#xd9;" horiz-adv-x="1180" d="M139 535v1005h172v-1036q0 -216 61.5 -300.5t210.5 -84.5t220 93t71 292v1036h168v-1005q0 -195 -22 -275.5t-80 -149.5q-122 -145 -360 -145q-121 0 -217 41q-171 75 -207 252q-17 82 -17 277zM363 1958h178l170 -270h-101z" />
<glyph unicode="&#xda;" horiz-adv-x="1180" d="M139 535v1005h172v-1036q0 -216 61.5 -300.5t210.5 -84.5t220 93t71 292v1036h168v-1005q0 -195 -22 -275.5t-80 -149.5q-122 -145 -360 -145q-121 0 -217 41q-171 75 -207 252q-17 82 -17 277zM469 1686l170 272h178l-247 -272h-101z" />
<glyph unicode="&#xdb;" horiz-adv-x="1180" d="M139 535v1005h172v-1036q0 -216 61.5 -300.5t210.5 -84.5t220 93t71 292v1036h168v-1005q0 -195 -22 -275.5t-80 -149.5q-122 -145 -360 -145q-121 0 -217 41q-171 75 -207 252q-17 82 -17 277zM334 1688l172 270h168l172 -270h-98l-158 166l-158 -166h-98z" />
<glyph unicode="&#xdc;" horiz-adv-x="1180" d="M139 535v1005h172v-1036q0 -216 61.5 -300.5t210.5 -84.5t220 93t71 292v1036h168v-1005q0 -195 -22 -275.5t-80 -149.5q-122 -145 -360 -145q-121 0 -217 41q-171 75 -207 252q-17 82 -17 277zM348 1723v170h156v-170h-156zM676 1723v170h156v-170h-156z" />
<glyph unicode="&#xdd;" horiz-adv-x="1028" d="M-31 1540h205l340 -758l356 758h187l-459 -944v-596h-174v596zM393 1686l170 272h178l-247 -272h-101z" />
<glyph unicode="&#xde;" horiz-adv-x="1085" d="M137 0v1540h172v-274h223q253 0 368.5 -103t115.5 -328.5t-121 -343.5t-356 -118h-230v-373h-172zM309 528h226q156 0 229.5 75t73.5 228t-74 219t-240 66h-215v-588z" />
<glyph unicode="&#xdf;" horiz-adv-x="985" d="M121 0v1077q0 240 88 355.5t263.5 115.5t265 -95.5t89.5 -276.5q0 -217 -143 -299q201 -84 201 -424q0 -482 -320 -482q-84 0 -137 41v152q59 -47 136 -47t115 76t38 261.5t-51 265t-170 79.5q-29 0 -47 -2v137q12 -2 34 -2q187 0 187 221q0 136 -47 198t-150 62 q-197 0 -197 -272v-1141h-155z" />
<glyph unicode="&#xe0;" horiz-adv-x="913" d="M90 289.5q0 150.5 64 228.5q66 79 282 151q176 59 176 138v106q0 71 -40.5 103.5t-129.5 32.5q-170 0 -170 -183v-20h-151q3 176 84 257t250.5 81t245 -74.5t75.5 -235.5v-673q0 -45 16 -64.5t38 -19.5q32 0 40 4v-123q-60 -10 -94 -10q-68 0 -107 43t-42 122 q-77 -182 -273 -182q-125 0 -194.5 84t-69.5 234.5zM246 1546h178l170 -270h-101zM252 298q0 -91 38 -138t107 -47q100 0 159.5 76t59.5 204v228q-38 -42 -168 -89q-129 -47 -162.5 -95t-33.5 -139z" />
<glyph unicode="&#xe1;" horiz-adv-x="913" d="M90 289.5q0 150.5 64 228.5q66 79 282 151q176 59 176 138v106q0 71 -40.5 103.5t-129.5 32.5q-170 0 -170 -183v-20h-151q3 176 84 257t250.5 81t245 -74.5t75.5 -235.5v-673q0 -45 16 -64.5t38 -19.5q32 0 40 4v-123q-60 -10 -94 -10q-68 0 -107 43t-42 122 q-77 -182 -273 -182q-125 0 -194.5 84t-69.5 234.5zM252 298q0 -91 38 -138t107 -47q100 0 159.5 76t59.5 204v228q-38 -42 -168 -89q-129 -47 -162.5 -95t-33.5 -139zM352 1274l170 272h178l-247 -272h-101z" />
<glyph unicode="&#xe2;" horiz-adv-x="913" d="M90 289.5q0 150.5 64 228.5q66 79 282 151q176 59 176 138v106q0 71 -40.5 103.5t-129.5 32.5q-170 0 -170 -183v-20h-151q3 176 84 257t250.5 81t245 -74.5t75.5 -235.5v-673q0 -45 16 -64.5t38 -19.5q32 0 40 4v-123q-60 -10 -94 -10q-68 0 -107 43t-42 122 q-77 -182 -273 -182q-125 0 -194.5 84t-69.5 234.5zM217 1276l172 270h168l172 -270h-98l-158 166l-158 -166h-98zM252 298q0 -91 38 -138t107 -47q100 0 159.5 76t59.5 204v228q-38 -42 -168 -89q-129 -47 -162.5 -95t-33.5 -139z" />
<glyph unicode="&#xe3;" horiz-adv-x="913" d="M90 289.5q0 150.5 64 228.5q66 79 282 151q176 59 176 138v106q0 71 -40.5 103.5t-129.5 32.5q-170 0 -170 -183v-20h-151q3 176 84 257t250.5 81t245 -74.5t75.5 -235.5v-673q0 -45 16 -64.5t38 -19.5q32 0 40 4v-123q-60 -10 -94 -10q-68 0 -107 43t-42 122 q-77 -182 -273 -182q-125 0 -194.5 84t-69.5 234.5zM225 1296q44 195 176 195q21 0 41 -6l107 -33l28 -4q56 0 68 70h74q-28 -201 -166 -201q-25 0 -59 10l-87 31q-10 4 -34 4q-51 0 -72 -66h-76zM252 298q0 -91 38 -138t107 -47q100 0 159.5 76t59.5 204v228 q-38 -42 -168 -89q-129 -47 -162.5 -95t-33.5 -139z" />
<glyph unicode="&#xe4;" horiz-adv-x="913" d="M90 289.5q0 150.5 64 228.5q66 79 282 151q176 59 176 138v106q0 71 -40.5 103.5t-129.5 32.5q-170 0 -170 -183v-20h-151q3 176 84 257t250.5 81t245 -74.5t75.5 -235.5v-673q0 -45 16 -64.5t38 -19.5q32 0 40 4v-123q-60 -10 -94 -10q-68 0 -107 43t-42 122 q-77 -182 -273 -182q-125 0 -194.5 84t-69.5 234.5zM231 1311v170h156v-170h-156zM252 298q0 -91 38 -138t107 -47q100 0 159.5 76t59.5 204v228q-38 -42 -168 -89q-129 -47 -162.5 -95t-33.5 -139zM559 1311v170h156v-170h-156z" />
<glyph unicode="&#xe5;" horiz-adv-x="913" d="M90 289.5q0 150.5 64 228.5q66 79 282 151q176 59 176 138v106q0 71 -40.5 103.5t-129.5 32.5q-170 0 -170 -183v-20h-151q3 176 84 257t250.5 81t245 -74.5t75.5 -235.5v-673q0 -45 16 -64.5t38 -19.5q32 0 40 4v-123q-60 -10 -94 -10q-68 0 -107 43t-42 122 q-77 -182 -273 -182q-125 0 -194.5 84t-69.5 234.5zM252 298q0 -91 38 -138t107 -47q100 0 159.5 76t59.5 204v228q-38 -42 -168 -89q-129 -47 -162.5 -95t-33.5 -139zM268 1433q0 80 56.5 136.5t137 56.5t136 -56t55.5 -136.5t-56.5 -137.5t-136 -57t-136 57t-56.5 137z M362 1434q0 -39 30.5 -70t69 -31t68 30t29.5 70.5t-29 69.5t-68.5 29t-69.5 -29.5t-30 -68.5z" />
<glyph unicode="&#xe6;" horiz-adv-x="1423" d="M94 291q0 168 96 258q55 51 219 108q130 44 159.5 62t39.5 31q17 23 17 84v55q0 166 -174 166q-83 0 -129 -48t-46 -135l3 -26h-152q3 176 84 257t266 81t256 -121q87 121 244 121q354 0 354 -512q0 -45 -4 -102l-557 -1q-2 -36 -2 -98q0 -196 50 -279t165 -83 q184 0 184 280h158q-2 -202 -93.5 -310t-260.5 -108q-215 0 -297 199q-142 -199 -316 -199q-124 0 -194 84.5t-70 235.5zM256 298.5q0 -90.5 38 -137t107 -46.5q103 0 161.5 76.5t58.5 214.5v215q-31 -40 -164 -87q-133 -48 -167 -96.5t-34 -139zM774 700h391v37 q0 154 -49 234t-143 80q-199 0 -199 -322v-29z" />
<glyph unicode="&#xe7;" horiz-adv-x="942" d="M94 575.5q0 606.5 387 606.5q161 0 254.5 -98.5t93.5 -268.5v-24h-157q-10 247 -185 247q-118 0 -168.5 -104.5t-50.5 -357t51 -358t170 -105.5q90 0 139 75t52 217l158 1q0 -209 -96 -323t-280 -114q-368 0 -368 606.5zM285 -342q133 -25 178 -25q110 0 110 84 q0 42 -29.5 65t-62.5 23t-57 -3v198h76v-102h6q97 0 152 -46.5t55 -127.5q0 -195 -246 -195q-80 0 -182 27v102z" />
<glyph unicode="&#xe8;" horiz-adv-x="901" d="M90 572q0 313 88.5 462.5t273 149.5t272 -127t87.5 -387q0 -66 -2 -100l-553 -1v-51q0 -216 50 -315t159 -99q85 0 134.5 74.5t49.5 202.5v8h158q-2 -204 -93.5 -312t-269 -108t-266 145t-88.5 458zM250 1546h178l170 -270h-101zM256 700h391v31q0 320 -186 320 q-205 0 -205 -351z" />
<glyph unicode="&#xe9;" horiz-adv-x="901" d="M90 572q0 313 88.5 462.5t273 149.5t272 -127t87.5 -387q0 -66 -2 -100l-553 -1v-51q0 -216 50 -315t159 -99q85 0 134.5 74.5t49.5 202.5v8h158q-2 -204 -93.5 -312t-269 -108t-266 145t-88.5 458zM256 700h391v31q0 320 -186 320q-205 0 -205 -351zM356 1274l170 272 h178l-247 -272h-101z" />
<glyph unicode="&#xea;" horiz-adv-x="901" d="M90 572q0 313 88.5 462.5t273 149.5t272 -127t87.5 -387q0 -66 -2 -100l-553 -1v-51q0 -216 50 -315t159 -99q85 0 134.5 74.5t49.5 202.5v8h158q-2 -204 -93.5 -312t-269 -108t-266 145t-88.5 458zM221 1276l172 270h168l172 -270h-98l-158 166l-158 -166h-98zM256 700 h391v31q0 320 -186 320q-205 0 -205 -351z" />
<glyph unicode="&#xeb;" horiz-adv-x="901" d="M90 572q0 313 88.5 462.5t273 149.5t272 -127t87.5 -387q0 -66 -2 -100l-553 -1v-51q0 -216 50 -315t159 -99q85 0 134.5 74.5t49.5 202.5v8h158q-2 -204 -93.5 -312t-269 -108t-266 145t-88.5 458zM235 1311v170h156v-170h-156zM256 700h391v31q0 320 -186 320 q-205 0 -205 -351zM563 1311v170h156v-170h-156z" />
<glyph unicode="&#xec;" horiz-adv-x="408" d="M-22 1546h178l170 -270h-101zM121 0v1151h166v-1151h-166z" />
<glyph unicode="&#xed;" horiz-adv-x="408" d="M84 1274l170 272h178l-247 -272h-101zM121 0v1151h166v-1151h-166z" />
<glyph unicode="&#xee;" horiz-adv-x="408" d="M-51 1276l172 270h168l172 -270h-98l-158 166l-158 -166h-98zM121 0v1151h166v-1151h-166z" />
<glyph unicode="&#xef;" horiz-adv-x="408" d="M-37 1311v170h156v-170h-156zM121 0v1151h166v-1151h-166zM291 1311v170h156v-170h-156z" />
<glyph unicode="&#xf0;" horiz-adv-x="989" d="M90 537q0 581 373 581q71 0 129 -35q-50 75 -172 168l-242 -135l-45 82l205 117q-47 33 -168 98l41 127q140 -69 266 -151l271 151l53 -82l-242 -137q177 -137 257.5 -321t80.5 -469t-97 -423.5t-306 -138.5t-306.5 138.5t-97.5 429.5zM262 550q0 -243 53 -342t177.5 -99 t178.5 102t54 341t-53 338t-178 99t-178.5 -98t-53.5 -341z" />
<glyph unicode="&#xf1;" horiz-adv-x="963" d="M123 0v1151h151v-143q84 168 289 168q152 0 216.5 -77t64.5 -265v-834h-162v846q0 186 -162 186q-108 0 -171.5 -68t-63.5 -184v-780h-162zM252 1296q44 195 176 195q21 0 41 -6l107 -33l28 -4q56 0 68 70h74q-28 -201 -166 -201q-25 0 -59 10l-87 31q-10 4 -34 4 q-51 0 -72 -66h-76z" />
<glyph unicode="&#xf2;" horiz-adv-x="989" d="M90 572.5q0 312.5 99.5 462t306 149.5t305 -148t98.5 -461t-98 -459.5t-307.5 -146.5t-306.5 145.5t-97 458zM262 575q0 -258 53 -363.5t178 -105.5t178.5 107.5t53.5 362.5t-53.5 360.5t-178 105.5t-178 -104.5t-53.5 -362.5zM275 1546h178l170 -270h-101z" />
<glyph unicode="&#xf3;" horiz-adv-x="989" d="M90 572.5q0 312.5 99.5 462t306 149.5t305 -148t98.5 -461t-98 -459.5t-307.5 -146.5t-306.5 145.5t-97 458zM262 575q0 -258 53 -363.5t178 -105.5t178.5 107.5t53.5 362.5t-53.5 360.5t-178 105.5t-178 -104.5t-53.5 -362.5zM381 1274l170 272h178l-247 -272h-101z" />
<glyph unicode="&#xf4;" horiz-adv-x="989" d="M90 572.5q0 312.5 99.5 462t306 149.5t305 -148t98.5 -461t-98 -459.5t-307.5 -146.5t-306.5 145.5t-97 458zM246 1276l172 270h168l172 -270h-98l-158 166l-158 -166h-98zM262 575q0 -258 53 -363.5t178 -105.5t178.5 107.5t53.5 362.5t-53.5 360.5t-178 105.5 t-178 -104.5t-53.5 -362.5z" />
<glyph unicode="&#xf5;" horiz-adv-x="989" d="M90 572.5q0 312.5 99.5 462t306 149.5t305 -148t98.5 -461t-98 -459.5t-307.5 -146.5t-306.5 145.5t-97 458zM254 1296q44 195 176 195q21 0 41 -6l107 -33l28 -4q56 0 68 70h74q-28 -201 -166 -201q-25 0 -59 10l-87 31q-10 4 -34 4q-51 0 -72 -66h-76zM262 575 q0 -258 53 -363.5t178 -105.5t178.5 107.5t53.5 362.5t-53.5 360.5t-178 105.5t-178 -104.5t-53.5 -362.5z" />
<glyph unicode="&#xf6;" horiz-adv-x="989" d="M90 572.5q0 312.5 99.5 462t306 149.5t305 -148t98.5 -461t-98 -459.5t-307.5 -146.5t-306.5 145.5t-97 458zM260 1311v170h156v-170h-156zM262 575q0 -258 53 -363.5t178 -105.5t178.5 107.5t53.5 362.5t-53.5 360.5t-178 105.5t-178 -104.5t-53.5 -362.5zM588 1311v170 h156v-170h-156z" />
<glyph unicode="&#xf7;" horiz-adv-x="1706" d="M254 541v139h1198v-139h-1198zM729 241q0 52 37 89t88 37t88 -37t37 -88.5t-36.5 -88t-89 -36.5t-88.5 36t-36 88zM729 979q0 52 37 89.5t88 37.5t88 -37.5t37 -89t-36.5 -88.5t-88.5 -37t-88.5 36.5t-36.5 88.5z" />
<glyph unicode="&#xf8;" horiz-adv-x="989" d="M29 -25l129 193q-68 158 -68 399q0 316 98 466.5t291.5 150.5t288.5 -107l102 152l78 -53l-123 -185q74 -136 74 -428q0 -594 -391 -594q-192 0 -295 111l-107 -162zM262 578q0 -142 12 -236l400 596q-53 104 -180.5 104t-179.5 -101.5t-52 -362.5zM309 223 q25 -60 69 -87t116 -27q124 0 177.5 107t53.5 362q0 113 -16 239z" />
<glyph unicode="&#xf9;" horiz-adv-x="963" d="M119 266v885h168v-889q0 -71 35.5 -110t99.5 -39q116 0 181 72t65 202v764h163v-1151h-149v150q-34 -87 -108.5 -134t-198.5 -47q-256 0 -256 297zM248 1546h178l170 -270h-101z" />
<glyph unicode="&#xfa;" horiz-adv-x="963" d="M119 266v885h168v-889q0 -71 35.5 -110t99.5 -39q116 0 181 72t65 202v764h163v-1151h-149v150q-34 -87 -108.5 -134t-198.5 -47q-256 0 -256 297zM354 1274l170 272h178l-247 -272h-101z" />
<glyph unicode="&#xfb;" horiz-adv-x="963" d="M119 266v885h168v-889q0 -71 35.5 -110t99.5 -39q116 0 181 72t65 202v764h163v-1151h-149v150q-34 -87 -108.5 -134t-198.5 -47q-256 0 -256 297zM219 1276l172 270h168l172 -270h-98l-158 166l-158 -166h-98z" />
<glyph unicode="&#xfc;" horiz-adv-x="963" d="M119 266v885h168v-889q0 -71 35.5 -110t99.5 -39q116 0 181 72t65 202v764h163v-1151h-149v150q-34 -87 -108.5 -134t-198.5 -47q-256 0 -256 297zM233 1311v170h156v-170h-156zM561 1311v170h156v-170h-156z" />
<glyph unicode="&#xfd;" horiz-adv-x="909" d="M35 1151h174l246 -928l254 928h165l-354 -1202q-56 -196 -129 -266t-207 -70q-44 0 -106 18v146q48 -21 109.5 -21t103 48t82.5 186zM334 1274l170 272h178l-247 -272h-101z" />
<glyph unicode="&#xfe;" horiz-adv-x="975" d="M123 -389v1929h166v-506q26 68 87.5 106t145.5 38q365 0 365 -600q0 -311 -85 -457t-265 -146q-81 0 -146.5 39t-101.5 109v-512h-166zM279 584q0 -240 56 -353.5t168 -113.5t161 109.5t49 352t-50 349t-165 106.5t-167 -105t-52 -345z" />
<glyph unicode="&#xff;" horiz-adv-x="909" d="M35 1151h174l246 -928l254 928h165l-354 -1202q-56 -196 -129 -266t-207 -70q-44 0 -106 18v146q48 -21 109.5 -21t103 48t82.5 186zM213 1311v170h156v-170h-156zM541 1311v170h156v-170h-156z" />
<glyph unicode="&#x152;" horiz-adv-x="1747" d="M104 770q0 418 113 612.5t348 194.5t316 -170v133h764v-160h-596v-495h555v-156h-555v-567h602v-162h-770v133q-81 -170 -316 -170t-348 194.5t-113 612.5zM285 773q0 -372 69 -515t232 -143t229 88.5t66 294.5v567q0 187 -68 272.5t-226.5 85.5t-230 -139t-71.5 -511z " />
<glyph unicode="&#x153;" horiz-adv-x="1485" d="M90 572.5q0 315.5 93 462.5t295 147t296 -160q90 160 268 160t262.5 -126.5t84.5 -391.5q0 -70 -3 -97h-530v-71q0 -215 44 -303.5t140 -88.5q189 0 193 279h149q-6 -198 -91 -305t-236 -107q-210 0 -285 166q-79 -166 -285 -166t-300.5 143t-94.5 458.5zM260 577.5 q0 -262.5 52 -368t170 -105.5t166 101.5t48 373t-47.5 371t-168.5 99.5t-170.5 -104.5t-49.5 -367zM854 698h373l2 56q0 141 -48 218t-141.5 77t-139.5 -84.5t-46 -266.5z" />
<glyph unicode="&#x178;" horiz-adv-x="1028" d="M-31 1540h205l340 -758l356 758h187l-459 -944v-596h-174v596zM272 1723v170h156v-170h-156zM600 1723v170h156v-170h-156z" />
<glyph unicode="&#x2c6;" horiz-adv-x="1024" d="M256 1276l172 270h168l172 -270h-98l-158 166l-158 -166h-98z" />
<glyph unicode="&#x2dc;" horiz-adv-x="1024" d="M264 1296q44 195 176 195q21 0 41 -6l107 -33l28 -4q56 0 68 70h74q-28 -201 -166 -201q-25 0 -59 10l-87 31q-10 4 -34 4q-51 0 -72 -66h-76z" />
<glyph unicode="&#x2000;" horiz-adv-x="986" />
<glyph unicode="&#x2001;" horiz-adv-x="1972" />
<glyph unicode="&#x2002;" horiz-adv-x="986" />
<glyph unicode="&#x2003;" horiz-adv-x="1972" />
<glyph unicode="&#x2004;" horiz-adv-x="657" />
<glyph unicode="&#x2005;" horiz-adv-x="493" />
<glyph unicode="&#x2006;" horiz-adv-x="328" />
<glyph unicode="&#x2007;" horiz-adv-x="328" />
<glyph unicode="&#x2008;" horiz-adv-x="246" />
<glyph unicode="&#x2009;" horiz-adv-x="394" />
<glyph unicode="&#x200a;" horiz-adv-x="109" />
<glyph unicode="&#x2010;" horiz-adv-x="676" d="M90 485v181h494v-181h-494z" />
<glyph unicode="&#x2011;" horiz-adv-x="676" d="M90 485v181h494v-181h-494z" />
<glyph unicode="&#x2012;" horiz-adv-x="676" d="M90 485v181h494v-181h-494z" />
<glyph unicode="&#x2013;" horiz-adv-x="1024" d="M0 502v147h1024v-147h-1024z" />
<glyph unicode="&#x2014;" horiz-adv-x="2048" d="M0 502v147h2048v-147h-2048z" />
<glyph unicode="&#x2018;" horiz-adv-x="502" d="M160 1071v211q0 116 49 195t133 100v-98q-88 -17 -88 -187v-10h88v-211h-182z" />
<glyph unicode="&#x2019;" horiz-adv-x="502" d="M160 1036v97q41 8 64.5 57.5t23.5 130.5v10h-88v209h182v-211q0 -116 -49 -194t-133 -99z" />
<glyph unicode="&#x201a;" horiz-adv-x="502" d="M160 0v211h182v-211q0 -116 -49 -195t-133 -100v96q41 8 64.5 57.5t23.5 131.5v10h-88z" />
<glyph unicode="&#x201c;" horiz-adv-x="795" d="M160 1071v211q0 116 49 194t133 99v-96q-88 -17 -88 -189v-10h88v-209h-182zM451 1071v211q0 116 48.5 194t133.5 99v-96q-88 -17 -88 -189v-10h88v-209h-182z" />
<glyph unicode="&#x201d;" horiz-adv-x="795" d="M160 1036v97q41 8 64.5 57.5t23.5 130.5v10h-88v209h182v-211q0 -116 -49 -194t-133 -99zM451 1036v97q41 8 64.5 57.5t23.5 130.5v10h-88v209h182v-211q0 -116 -49 -194t-133 -99z" />
<glyph unicode="&#x201e;" horiz-adv-x="795" d="M160 0v211h182v-211q0 -116 -49 -195t-133 -100v96q41 8 64.5 57.5t23.5 131.5v10h-88zM451 0v211h182v-211q0 -116 -49 -195t-133 -100v96q41 8 64.5 57.5t23.5 131.5v10h-88z" />
<glyph unicode="&#x2022;" horiz-adv-x="1208" d="M307 762q0 123 87 209t209.5 86t209 -86.5t86.5 -208.5t-87.5 -209.5t-210 -87.5t-208.5 87t-86 210z" />
<glyph unicode="&#x2026;" horiz-adv-x="2048" d="M250 0v211h182v-211h-182zM932 0v211h182v-211h-182zM1616 0v211h182v-211h-182z" />
<glyph unicode="&#x202f;" horiz-adv-x="394" />
<glyph unicode="&#x2039;" horiz-adv-x="565" d="M131 506v145l303 314v-187l-196 -200l196 -205v-187z" />
<glyph unicode="&#x203a;" horiz-adv-x="565" d="M131 186v187l197 200l-197 205v187l303 -318v-147z" />
<glyph unicode="&#x205f;" horiz-adv-x="493" />
<glyph unicode="&#x20ac;" d="M33 602l24 98h117q0 110 2 170h-135l25 99h114q18 317 115 448t309 131q175 0 264 -99.5t101 -315.5h-166q-20 266 -201 266q-125 0 -180.5 -94t-65.5 -336h449l-25 -99h-428l-2 -84l2 -86h387l-26 -98h-358q6 -273 61.5 -378t183.5 -105q102 0 154 84t57 268h168 q-15 -264 -109.5 -383t-291.5 -119t-292.5 147t-109.5 486h-143z" />
<glyph unicode="&#x2122;" horiz-adv-x="1706" d="M242 1378v80h452v-80h-172v-458h-108v458h-172zM813 920v538h150l151 -385l141 385h150v-538h-98v444l-166 -444h-56l-174 444v-444h-98z" />
<glyph unicode="&#xe000;" horiz-adv-x="1150" d="M0 0v1150h1150v-1150h-1150z" />
</font>
</defs>
</svg>
